<svg width="47" height="47" viewBox="0 0 47 47" fill="none" xmlns="http://www.w3.org/2000/svg">
<g clip-path="url(#clip0_2_133)">
<path d="M10.2556 0.680443C9.02241 0.677685 7.80078 0.918553 6.66089 1.38922C5.521 1.85988 4.48531 2.55107 3.61328 3.4231C2.74126 4.29513 2.05007 5.33082 1.5794 6.47071C1.10874 7.61059 0.867871 8.83222 0.870629 10.0655V36.9368C0.867871 38.1701 1.10874 39.3917 1.5794 40.5316C2.05007 41.6715 2.74126 42.7072 3.61328 43.5792C4.48531 44.4512 5.521 45.1424 6.66089 45.6131C7.80078 46.0837 9.02241 46.3246 10.2556 46.3218H37.127C38.3602 46.3246 39.5819 46.0837 40.7218 45.6131C41.8616 45.1424 42.8973 44.4512 43.7694 43.5792C44.6414 42.7072 45.3326 41.6715 45.8032 40.5316C46.2739 39.3917 46.5148 38.1701 46.512 36.9368V10.0655C46.5148 8.83222 46.2739 7.61059 45.8032 6.47071C45.3326 5.33082 44.6414 4.29513 43.7694 3.4231C42.8973 2.55107 41.8616 1.85988 40.7218 1.38922C39.5819 0.918553 38.3602 0.677685 37.127 0.680443H10.2556ZM25.1081 9.32759C29.2558 9.32759 32.8253 10.6132 35.3755 12.8401C36.6464 13.9391 37.6641 15.3003 38.3587 16.8301C39.0534 18.3599 39.4085 20.022 39.3996 21.7021C39.4091 25.2279 37.7261 28.3125 35.1074 30.3797C32.4925 32.4564 28.9743 33.6069 25.1081 33.6069C20.7075 33.6069 16.6264 32.0057 16.6264 32.0057V37.1745C17.3814 37.3951 18.6194 37.8687 17.834 38.656H11.8816C11.1019 37.8763 12.2429 37.4199 13.1063 37.1745V15.2591C11.1038 16.7995 10.0769 18.1307 9.5539 19.1215C10.1625 21.0612 9.01381 20.9642 9.01381 20.9642L6.94093 17.6743C6.94093 17.6743 14.2968 9.32759 25.1081 9.32759ZM24.7468 11.1742C22.0406 11.1685 18.6917 12.0737 16.6264 13.5399V29.9822C18.5053 30.9084 21.3503 31.5645 24.7278 31.5645H24.7468C27.7819 31.5645 30.4139 30.4367 32.2206 28.6491C34.031 26.8463 35.0465 24.4976 35.0579 21.6451C35.0484 18.7164 34.0995 16.1985 32.3575 14.3044C30.6117 12.4179 28.033 11.1761 24.7468 11.1742Z" fill="#3A3A3A"/>
</g>
<defs>
<clipPath id="clip0_2_133">
<rect width="45.6414" height="45.6414" fill="white" transform="translate(0.870605 0.68042)"/>
</clipPath>
</defs>
</svg>
