<svg width="26" height="26" viewBox="0 0 26 26" fill="none" xmlns="http://www.w3.org/2000/svg">
<path d="M7.35 0H17.9948C22.05 0 25.3448 3.29483 25.3448 7.35V17.9948C25.3448 19.9442 24.5705 21.8137 23.1921 23.1921C21.8137 24.5705 19.9442 25.3448 17.9948 25.3448H7.35C3.29483 25.3448 0 22.05 0 17.9948V7.35C0 5.40066 0.774373 3.53116 2.15277 2.15277C3.53116 0.774373 5.40066 0 7.35 0ZM7.09655 2.53448C5.88662 2.53448 4.72624 3.01513 3.87068 3.87068C3.01513 4.72624 2.53448 5.88662 2.53448 7.09655V18.2483C2.53448 20.7701 4.57474 22.8104 7.09655 22.8104H18.2483C19.4582 22.8104 20.6186 22.3297 21.4742 21.4742C22.3297 20.6186 22.8104 19.4582 22.8104 18.2483V7.09655C22.8104 4.57474 20.7701 2.53448 18.2483 2.53448H7.09655ZM19.3254 4.43535C19.7456 4.43535 20.1485 4.60224 20.4455 4.8993C20.7426 5.19637 20.9095 5.59928 20.9095 6.0194C20.9095 6.43952 20.7426 6.84243 20.4455 7.13949C20.1485 7.43656 19.7456 7.60345 19.3254 7.60345C18.9053 7.60345 18.5024 7.43656 18.2053 7.13949C17.9083 6.84243 17.7414 6.43952 17.7414 6.0194C17.7414 5.59928 17.9083 5.19637 18.2053 4.8993C18.5024 4.60224 18.9053 4.43535 19.3254 4.43535ZM12.6724 6.33621C14.3529 6.33621 15.9645 7.00377 17.1528 8.19204C18.3411 9.38031 19.0086 10.992 19.0086 12.6724C19.0086 14.3529 18.3411 15.9645 17.1528 17.1528C15.9645 18.3411 14.3529 19.0086 12.6724 19.0086C10.992 19.0086 9.38031 18.3411 8.19204 17.1528C7.00377 15.9645 6.33621 14.3529 6.33621 12.6724C6.33621 10.992 7.00377 9.38031 8.19204 8.19204C9.38031 7.00377 10.992 6.33621 12.6724 6.33621ZM12.6724 8.87069C11.6641 8.87069 10.6972 9.27123 9.98419 9.98419C9.27123 10.6972 8.87069 11.6641 8.87069 12.6724C8.87069 13.6807 9.27123 14.6477 9.98419 15.3606C10.6972 16.0736 11.6641 16.4741 12.6724 16.4741C13.6807 16.4741 14.6477 16.0736 15.3606 15.3606C16.0736 14.6477 16.4741 13.6807 16.4741 12.6724C16.4741 11.6641 16.0736 10.6972 15.3606 9.98419C14.6477 9.27123 13.6807 8.87069 12.6724 8.87069Z" fill="#3A3A3A"/>
</svg>
