<svg width="27" height="22" viewBox="0 0 27 22" fill="none" xmlns="http://www.w3.org/2000/svg">
<path d="M26.5107 2.53448C25.5349 2.97802 24.4831 3.26948 23.3933 3.40888C24.5085 2.73724 25.3702 1.67276 25.7757 0.392845C24.7239 1.02647 23.558 1.47 22.3288 1.72345C21.3277 0.633621 19.921 0 18.3243 0C15.3463 0 12.9132 2.4331 12.9132 5.43647C12.9132 5.86733 12.9639 6.28552 13.0526 6.67837C8.54121 6.45026 4.52405 4.28328 1.85017 1.00112C1.38129 1.79948 1.11517 2.73724 1.11517 3.72569C1.11517 5.61388 2.0656 7.28664 3.5356 8.23707C2.63586 8.23707 1.79948 7.98362 1.06448 7.60345V7.64147C1.06448 10.2773 2.94 12.4823 5.4238 12.9766C4.62635 13.1948 3.78917 13.2252 2.97802 13.0653C3.32221 14.1456 3.99629 15.0908 4.90551 15.7682C5.81473 16.4456 6.91337 16.821 8.04699 16.8416C6.12538 18.3629 3.74343 19.1852 1.29259 19.1734C0.861724 19.1734 0.430862 19.148 0 19.0973C2.40776 20.6434 5.27173 21.5431 8.33845 21.5431C18.3243 21.5431 23.8115 13.2554 23.8115 6.07009C23.8115 5.82931 23.8115 5.60121 23.7988 5.36043C24.8633 4.60009 25.7757 3.63698 26.5107 2.53448Z" fill="#3A3A3A"/>
</svg>
